<svg xmlns="http://www.w3.org/2000/svg" id="Capa_2" data-name="Capa 2" viewBox="0 0 471.37 188.57"><defs><style>      .cls-1 {        fill: #f7d9b6;      }      .cls-2, .cls-3 {        fill: #fc832c;      }      .cls-4 {        fill: #fdfcfc;      }      .cls-5 {        stroke: #fff;        stroke-width: .5px;      }      .cls-3 {        font-family: Texta-Medium, Texta;        font-size: 28px;        font-weight: 500;        letter-spacing: .7em;      }    </style></defs><g id="Capa_1-2" data-name="Capa 1"><g><path class="cls-1" d="M406.38,120.16c.64,.67,1.46,.48,2.22,.38,1.4-.18,2.57-.91,3.68-1.71,1.7-1.23,3.44-2.38,5.35-3.27,4.46-2.08,8.83-1.66,13.17,.39,2.86,1.35,5.35,3.11,6.88,5.99,2.95,5.55,0,12.32-6.22,13.93-1.66,.43-2.5,1.12-3.19,2.7-1.85,4.17-5.14,6.61-9.8,6.62-3.68,0-6.38-2.02-8.46-4.94-1.71-2.41-2.73-5.13-3.6-7.92-1.23-3.97-2.3-7.99-3.14-12.06-.05-.22-.12-.44-.25-.87-.48,2-.9,3.79-1.35,5.58-.97,3.92-1.97,7.83-3.62,11.54-1.33,2.98-3.04,5.66-5.97,7.36-3.4,1.96-6.74,1.7-9.99-.3-2.28-1.4-3.8-3.47-4.68-5.97-.3-.84-.69-1.22-1.69-1.38-3.65-.61-6.45-2.56-7.8-6.08-1.37-3.56-.88-7.08,1.7-9.89,4.37-4.75,9.81-6.94,16.32-5.61,2.84,.58,5.23,2.22,7.55,3.91,1.21,.88,2.45,1.71,3.96,1.97,.83,.14,1.68,.28,2.42-.32,1.16-.41,1.79-1.29,2.04-2.44,.31-1.42,.2-2.84-.16-4.23-1.27-4.9-4.13-8.65-8.36-11.35-2-1.28-4.17-2.13-6.6-1.92-1.17,.1-2.27,.48-2.81,1.68-.5,1.11-.04,2.07,.61,2.95,.66,.89,1.54,1.54,2.39,2.22,2.41,1.93,4.94,3.73,7.02,6.04-1.6-.56-3.09-1.4-4.75-1.79-3.95-.92-7.91-1.33-11.99-1.2-5.84,.19-10.96-2.78-12.02-9.51-.25-1.6-.27-3.21-.19-4.81,.06-1.09-.37-1.65-1.26-2.15-2.43-1.37-4.54-3.16-6.21-5.4-1.91-2.57-2.8-5.43-2.14-8.65,.73-3.56,4-6.19,7.79-6.39,3.66-.19,7.03,.75,10.22,2.45,.35,.18,.71,.33,1.06,.5,.23,.42,.72,.4,1.08,.61,3.37,1.94,6.65,4,9.67,6.47,7.07,5.78,12.22,12.9,15.22,21.55,1.15,3.32,1.96,6.72,2.58,10.43,.12-.5,.19-.75,.25-1.01,.37-1.65,.68-3.31,1.12-4.94,.56-2.06,1.18-4.11,2.03-6.08,1.06-2.45,2.13-4.87,3.53-7.15,3.01-4.9,6.73-9.17,11.17-12.83,3.29-2.72,6.94-4.88,10.61-7.03,1.43-.58,2.77-1.37,4.24-1.87,2.92-.97,5.87-1.5,8.94-.74,4.01,.99,6.62,4.97,5.99,9.23-.56,3.76-2.74,6.46-5.5,8.8-1.04,.88-2.15,1.68-3.34,2.34-.55,.3-.73,.72-.72,1.33,.05,2.18,.02,4.35-.51,6.5-.98,4-3.5,6.53-7.33,7.86-1.87,.65-3.79,.57-5.74,.49-5.12-.2-10.11,.49-14.79,2.75-.18,.09-.34,.29-.56,.08,.13-.2,.23-.43,.41-.58,1.92-1.63,3.77-3.32,5.8-4.82,1.24-.92,2.5-1.84,3.35-3.18,.97-1.53,.48-3.08-1.16-3.84-.8-.37-1.65-.43-2.5-.35-4.96,.49-8.35,3.46-11.12,7.26-1.14,1.56-1.91,3.37-2.5,5.23-.63,2.01-.95,4.02-.05,6.03,.33,.75,.84,1.34,1.72,1.44Z"></path><path class="cls-2" d="M431.74,76.19c-3.66,2.15-7.31,4.32-10.61,7.03-4.44,3.66-8.16,7.93-11.17,12.83-1.4,2.28-2.47,4.7-3.53,7.15-.86,1.98-1.47,4.02-2.03,6.08-.44,1.63-.75,3.29-1.12,4.94-.06,.26-.13,.52-.25,1.01-.61-3.71-1.43-7.11-2.58-10.43-2.99-8.65-8.15-15.77-15.22-21.55-3.02-2.47-6.3-4.53-9.67-6.47-.36-.21-.85-.19-1.08-.61,2.02-.72,4.03-.36,5.97,.25,4.2,1.32,7.52,4.01,10.55,7.08,3.6,3.64,6.47,7.78,8.56,12.46,1.44,3.21,2.63,6.51,3.27,9.99,.04,.2,.12,.38,.37,.6,.13-.47,.27-.94,.38-1.42,.74-3.33,1.82-6.55,3.31-9.62,3.19-6.6,7.53-12.28,13.62-16.49,2.95-2.04,6.15-3.43,9.85-3.21,.48,.03,.98,0,1.37,.38Z"></path><path class="cls-2" d="M406.38,120.16c-.89-.11-1.39-.7-1.72-1.44-.9-2.01-.59-4.02,.05-6.03,.59-1.86,1.36-3.67,2.5-5.23,2.78-3.8,6.16-6.77,11.12-7.26,.84-.08,1.69-.02,2.5,.35,1.64,.76,2.12,2.31,1.16,3.84-.85,1.34-2.11,2.26-3.35,3.18-2.02,1.5-3.88,3.2-5.8,4.82-.17,.15-.27,.39-.41,.58-.63,.12-.75,.75-1.09,1.13-1.72,1.96-3.44,3.93-4.95,6.06Z"></path><path class="cls-2" d="M393.97,113.13c-2.08-2.31-4.61-4.11-7.02-6.04-.85-.68-1.73-1.33-2.39-2.22-.65-.89-1.11-1.84-.61-2.95,.54-1.2,1.64-1.58,2.81-1.68,2.43-.21,4.61,.64,6.6,1.92,4.23,2.71,7.09,6.46,8.36,11.35,.36,1.39,.48,2.81,.16,4.23-.25,1.15-.87,2.03-2.04,2.44-.99-1.55-2.28-2.87-3.41-4.32-.66-.85-1.27-1.75-2.18-2.38-.07-.09-.15-.18-.22-.27v-.06s-.07-.01-.07-.01Z"></path><path class="cls-4" d="M394.04,113.21c.07,.09,.15,.18,.22,.27-.07-.09-.15-.18-.22-.27Z"></path></g><path class="cls-5" d="M3.16,66.27c3.48-.23,3.9-4.61,3.96-5.77V5.19c-.39-1.58-1.5-4.64-3.96-4.64h15.93c-2.46,0-3.58,3.06-3.96,4.64V60.5c.07,1.16,.49,5.54,3.96,5.77H3.16Z"></path><path class="cls-5" d="M43.54,2.89c-8.74,.05-16.65,5.56-10.61,16.78,5.18,9.62,25.15,12.99,29.48,26.51,4.04,12.61-4.06,21.84-18.68,21.26-5.36-.21-11.59-1.89-18.42-5.45-.54-.28-1.12-.49-1.68-.75l.74-9.37c2.23,8.97,11.28,13.23,19.17,13.41,8.38,.18,15.46-4.31,11.7-14.79-3.1-8.64-10.87-10.69-23.26-20.51C16.07,17.36,24.8,1.35,43.77,1.05c4.76-.08,10.16,.9,15.98,3.26l-.61,9.71c-.76-7.68-8.48-11.18-15.6-11.14Z"></path><path class="cls-5" d="M67.98,66.32s2.28-1.47,2.92-3.42L91.57,.25h2.78l20.6,62.41c.51,1.27,1.92,3.66,5.33,3.66h-16.22s3.55-.61,2.29-4.43l-3.87-12.65-24.66,.04-4.29,13.87-.05,.16c-.17,.58-.6,2.57,1.6,3.01h-7.12Zm11-19.63h22.37l-11.19-33.93-11.19,33.93Z"></path><path class="cls-5" d="M127.79,60.52V5.25c-.32-1.58-1.26-4.69-3.33-4.69h17.2c29.21-.83,26.15,24.46,10.93,28.2,25.48,1.2,26.31,36.25-3.51,37.53-1.72,.08-14.52,0-14.52,0h-10.11c2.92-.23,3.27-4.6,3.33-5.76Zm7.46-58.22V28.48h7.44c17.99-.5,19.64-27.28-3.37-26.16l-4.07-.02h0Zm0,61.85h9.66c22.18-.59,27.27-33.4-2.22-33.03-1.68,.02-6.25,0-7.44,0v33.03Z"></path><path class="cls-5" d="M186.99,2.73V31.16h20.21c2.39,0,4.14-1.42,5.49-2.66v8.16c-1.34-1.23-3.09-2.98-5.49-2.98h-20.21v30.23h25.49c2.39,0,4.14-3.06,5.49-4.29v6.68l-41.76,.05c2.92-.23,3.27-4.61,3.33-5.77V5.27c-.32-1.58-1.26-4.98-3.33-4.98h41.76V7.02c-1.34-1.24-3.09-4.29-5.49-4.29h-25.49Z"></path><path class="cls-5" d="M233.67,64.15h25.39c5.06,0,6.71-8.03,8.05-9.26v11.43h-44.47c2.92-.23,3.27-4.61,3.33-5.77V5.23c-.32-1.58-1.26-4.98-3.33-4.98h14.31c-2.07,0-3.01,3.4-3.33,4.98V63.63c0,.13,.02,.31,.04,.51Z"></path><path class="cls-5" d="M326.86,62.66l-10.75-18.31c-1.69,.27-3.46,.44-5.34,.45-5.59,.03-6.93-.01-7.48,0v16.57c0,4.87,1.98,4.95,1.98,4.95h-11.15s1.98,0,1.98-4.95V5.25c0-4.95-1.98-4.7-1.98-4.7h14.08c33.76,0,30.69,33.43,14.3,42,1.2,2.15,8.94,15.88,12.27,20.11,0,0,3.22,3.66,5.23,3.66h-13.63s2.02-1.18,.48-3.66Zm-13.87-20.41c21.37-1.06,19.58-39.93-3.52-39.93h-6.13c-.02,.31-.04,39.93-.04,39.93,3.66,.14,6.77,.14,9.69,0Z"></path><path d="M391.74,.41c-3.31,0-4.15,5.62-4.15,5.62V47.84c0,28.22-43.32,23.32-43.32,0,0-7.3-.03-32.95-.05-41.81,0,0-.8-5.62-4.11-5.62h17.16c-3.31,0-4.1,5.62-4.1,5.62V47.84c0,19.68,30.82,20.45,30.82,0V6.03s-.84-5.62-4.15-5.62h11.9Z"></path><path d="M403.26,167.55c-4.38,0-7.53-4.38-6.45-8.88,6.53-27.07,7.23-93.17,7.28-94.19l-3.74-59.02c-.39-1.67-1.5-4.92-3.96-4.92h15.93c-2.46,0-3.58,3.25-3.96,4.92l-4.26,59.02c.06,1.02-.95,68.56,5.24,94.74,1,4.23-1.97,8.33-6.08,8.33h0Z"></path><path d="M416.86,66.32L458.32,2.42h-27.3c-6.63,0-11.79,5.16-13.37,8.56V.56h53.72l-41.27,63.3h30.37c5.32-1.12,9.32-5.34,10.68-8.27v10.71l-54.29,.02Z"></path><path class="cls-5" d="M1.16,138.32s2.28-1.47,2.92-3.42l20.67-62.64h2.78l20.6,62.41c.51,1.27,1.92,3.66,5.33,3.66h-16.22s3.55-.61,2.29-4.43l-3.87-12.65-24.66,.04-4.29,13.87-.05,.16c-.17,.58-.6,2.57,1.6,3.01H1.16Zm11-19.63h22.37l-11.19-33.93-11.19,33.93Z"></path><path class="cls-5" d="M96.83,134.66l-10.75-18.31c-1.69,.27-3.46,.44-5.34,.45-5.59,.03-6.93-.01-7.48,0v16.57c0,4.87,1.98,4.95,1.98,4.95h-11.15s1.98,0,1.98-4.95v-56.12c0-4.95-1.98-4.7-1.98-4.7h14.08c33.76,0,30.69,33.43,14.3,42,1.2,2.15,8.94,15.88,12.27,20.11,0,0,3.22,3.66,5.23,3.66h-13.63s2.02-1.18,.48-3.66Zm-13.87-20.41c21.37-1.06,19.58-39.93-3.52-39.93h-6.13c-.02,.31-.04,39.93-.04,39.93,3.66,.14,6.77,.14,9.69,0Z"></path><path class="cls-5" d="M153.11,134.66l-10.75-18.31c-1.69,.27-3.46,.44-5.34,.45-5.59,.03-6.93-.01-7.48,0v16.57c0,4.87,1.98,4.95,1.98,4.95h-11.15s1.98,0,1.98-4.95v-56.12c0-4.95-1.98-4.7-1.98-4.7h14.08c33.76,0,30.69,33.43,14.3,42,1.2,2.15,8.94,15.88,12.27,20.11,0,0,3.22,3.66,5.23,3.66h-13.63s2.02-1.18,.48-3.66Zm-13.87-20.41c21.37-1.06,19.58-39.93-3.52-39.93h-6.13c-.02,.31-.04,39.93-.04,39.93,3.66,.14,6.77,.14,9.69,0Z"></path><path class="cls-5" d="M176.66,138.27c3.48-.23,3.9-4.61,3.96-5.77v-55.31c-.39-1.58-1.5-4.64-3.96-4.64h15.93c-2.46,0-3.58,3.06-3.96,4.64v55.31c.07,1.16,.49,5.54,3.96,5.77h-15.93Z"></path><path class="cls-5" d="M213.77,74.73v28.43h20.21c2.39,0,4.14-1.42,5.49-2.66v8.16c-1.34-1.23-3.09-2.98-5.49-2.98h-20.21v30.23h25.49c2.39,0,4.14-3.06,5.49-4.29v6.68l-41.76,.05c2.92-.23,3.27-4.61,3.33-5.77v-55.32c-.32-1.58-1.26-4.98-3.33-4.98h41.76v6.73c-1.34-1.24-3.09-4.29-5.49-4.29h-25.49Z"></path><path class="cls-5" d="M302.11,74.69h-16.59v57.58c0,.22,.02,.42,.04,.62,0,.09,.01,.19,.02,.28,.02,.15,.06,.28,.09,.43,.03,.12,.05,.24,.08,.36,.03,.09,.06,.17,.09,.25,.06,.16,.11,.32,.18,.46,0,.02,.02,.03,.02,.05,.96,2.02,2.96,3.02,3.95,3.41,.36,.14,.59,.2,.59,.2h-18.2s.23-.06,.59-.2c.99-.39,2.99-1.38,3.95-3.41,0-.02,.02-.03,.03-.05,.07-.15,.12-.31,.18-.46,.03-.09,.06-.16,.09-.25,.04-.11,.06-.24,.09-.36,.03-.14,.07-.28,.09-.43,.01-.09,.01-.18,.02-.28,.02-.2,.04-.41,.04-.62v-57.58h-16.59c-2.44,0-4.23,4.1-5.6,5.36v-7.8h52.42v7.8c-1.37-1.26-3.16-5.36-5.59-5.36Z"></path><path class="cls-5" d="M305.82,138.32s2.28-1.47,2.92-3.42l20.67-62.64h2.78l20.6,62.41c.51,1.27,1.92,3.66,5.33,3.66h-16.22s3.55-.61,2.29-4.43l-3.87-12.65-24.66,.04-4.29,13.87-.05,.16c-.17,.58-.6,2.57,1.6,3.01h-7.12Zm11-19.63h22.37l-11.19-33.93-11.19,33.93Z"></path><text class="cls-3" transform="translate(0 167.55)"><tspan x="0" y="0">PSICÓLOGA</tspan></text></g></svg>